# xmcd
#
# Track frame offsets:
#	150
#	11380
#	25722
#	39590
#	50910
#	66965
#	82650
#	97639
#
# Disc length: 1447 seconds
#
# Revision: 1
# Processed by: cddbd v1.5.2PL0 Copyright (c) Steve Scherf et al.
# Submitted via: EZCDAudioConverter 3.1.5.1
#
DISCID=5105a508
DTITLE=Βίκυ Μοσχολιού - 8 Μεγάλες Επιτυχίες
DYEAR=2006
DGENRE=laika
TTITLE0=Το Γράμμα Κι Η Φωτογραφία
TTITLE1=Δεν Κάνει Να Ξαναγαπήσω
TTITLE2=Το Αδιέξοδο
TTITLE3=Ο Κρητικός Κι Η Κοπελιά
TTITLE4=Πες Πως Είναι Ένα Σπίτι
TTITLE5=Κρίμα που Δεν Ξέρςις Ν' Αγαπιέσαι
TTITLE6=Του Ξενιτεμένου Η μάνα
TTITLE7=Χαλάλι Σου
EXTD=
EXTT0=
EXTT1=
EXTT2=
EXTT3=
EXTT4=
EXTT5=
EXTT6=
EXTT7=
PLAYORDER=
